<?xml version="1.0" encoding="UTF-8" standalone="no"?>
<!-- Created with Inkscape (http://www.inkscape.org/) -->

<svg
   xmlns:dc="http://purl.org/dc/elements/1.1/"
   xmlns:cc="http://creativecommons.org/ns#"
   xmlns:rdf="http://www.w3.org/1999/02/22-rdf-syntax-ns#"
   xmlns:svg="http://www.w3.org/2000/svg"
   xmlns="http://www.w3.org/2000/svg"
   xmlns:xlink="http://www.w3.org/1999/xlink"
   xmlns:sodipodi="http://sodipodi.sourceforge.net/DTD/sodipodi-0.dtd"
   xmlns:inkscape="http://www.inkscape.org/namespaces/inkscape"
   width="600"
   height="600"
   id="svg3152"
   version="1.1"
   inkscape:version="0.91 r13725"
   sodipodi:docname="icon-warning.svg">
  <title
     id="title3355">USBGuard warning icon</title>
  <defs
     id="defs3154">
    <linearGradient
       id="linearGradient3267">
      <stop
         id="stop3275"
         offset="0"
         style="stop-color:#ff0000;stop-opacity:1;" />
      <stop
         style="stop-color:#ff0000;stop-opacity:0;"
         offset="1"
         id="stop3271" />
    </linearGradient>
    <radialGradient
       inkscape:collect="always"
       xlink:href="#linearGradient3267"
       id="radialGradient3273"
       cx="296.27817"
       cy="314.73624"
       fx="296.27817"
       fy="314.73624"
       r="301.42856"
       gradientUnits="userSpaceOnUse"
       gradientTransform="matrix(1.1564172,0.00467594,-0.00492611,1.2179903,-43.927905,-67.588229)" />
  </defs>
  <sodipodi:namedview
     id="base"
     pagecolor="#ffffff"
     bordercolor="#666666"
     borderopacity="1.0"
     inkscape:pageopacity="0"
     inkscape:pageshadow="2"
     inkscape:zoom="0.35"
     inkscape:cx="-112.14286"
     inkscape:cy="551.42857"
     inkscape:document-units="px"
     inkscape:current-layer="layer1"
     showgrid="false"
     showborder="true"
     borderlayer="false"
     inkscape:showpageshadow="false"
     inkscape:window-width="1920"
     inkscape:window-height="1025"
     inkscape:window-x="-2"
     inkscape:window-y="1077"
     inkscape:window-maximized="1" />
  <metadata
     id="metadata3157">
    <rdf:RDF>
      <cc:Work
         rdf:about="">
        <dc:format>image/svg+xml</dc:format>
        <dc:type
           rdf:resource="http://purl.org/dc/dcmitype/StillImage" />
        <dc:title>USBGuard warning icon</dc:title>
        <cc:license
           rdf:resource="http://creativecommons.org/licenses/by-sa/3.0/" />
        <dc:creator>
          <cc:Agent>
            <dc:title>Daniel Kopecek</dc:title>
          </cc:Agent>
        </dc:creator>
      </cc:Work>
      <cc:License
         rdf:about="http://creativecommons.org/licenses/by-sa/3.0/">
        <cc:permits
           rdf:resource="http://creativecommons.org/ns#Reproduction" />
        <cc:permits
           rdf:resource="http://creativecommons.org/ns#Distribution" />
        <cc:requires
           rdf:resource="http://creativecommons.org/ns#Notice" />
        <cc:requires
           rdf:resource="http://creativecommons.org/ns#Attribution" />
        <cc:permits
           rdf:resource="http://creativecommons.org/ns#DerivativeWorks" />
        <cc:requires
           rdf:resource="http://creativecommons.org/ns#ShareAlike" />
      </cc:License>
    </rdf:RDF>
  </metadata>
  <g
     inkscape:label="Layer 1"
     inkscape:groupmode="layer"
     id="layer1"
     transform="translate(0,-452.36218)">
    <rect
       style="fill:url(#radialGradient3273);fill-opacity:1"
       id="rect3257"
       width="602.85712"
       height="602.85712"
       x="0"
       y="-1.1368684e-13"
       transform="translate(0,452.36218)" />
    <g
       id="g3211"
       transform="matrix(1.6920226,0,0,1.6920226,-222.26199,-526.01206)">
      <path
         inkscape:connector-curvature="0"
         id="path1334"
         d="m 469.71455,590.12315 c -18.60468,4.98299 -37.20936,9.96597 -55.81404,14.94896 4.85853,4.85853 9.71706,9.71706 14.57559,14.57559 -60.28156,60.28156 -120.56312,120.56311 -180.84468,180.84467 -0.44498,-24.80819 -1.83869,-49.673 -1.68973,-74.44575 3.62781,-15.86932 19.71435,-24.11383 29.4151,-36.05679 8.13393,-12.23131 28.11367,2.57146 36.82492,-13.29941 13.584,-15.05115 0.83465,-41.86577 -19.41709,-40.8185 -17.71669,-0.78999 -30.91272,20.17069 -22.47275,35.80918 -11.36273,12.07408 -24.37453,22.75559 -34.43331,35.93646 -10.69135,17.30946 -5.59411,36.26428 -6.0082,55.58164 -1.32916,18.31507 4.83489,37.93538 -1.81116,55.41477 -6.71145,9.64456 -16.20397,17.01843 -24.17345,25.63135 -22.63975,-16.42762 -58.07943,-2.27451 -63.70601,24.86771 -7.36915,25.88515 15.77824,53.99126 42.59941,51.69227 28.06931,-0.28667 48.71445,-33.12164 36.26318,-58.53728 -8.11029,-7.49791 3.91843,-11.98625 7.92971,-17.73493 18.98571,-18.53205 37.11703,-38.0453 56.65774,-55.94023 16.39488,-8.56814 35.98699,-1.35796 53.67154,-2.96918 15.40525,-0.40532 30.70679,2.57244 45.08951,-0.32648 18.86598,-3.69668 29.44498,-20.93373 42.883,-32.912 4.02415,-6.462 8.0491,-6.48503 12.07486,-0.0111 4.17784,7.18254 8.35568,5.03753 12.53352,-0.87407 9.5623,-9.5623 19.12461,-19.1246 28.68691,-28.6869 -11.79572,-11.79572 -23.59144,-23.59144 -35.38716,-35.38716 -11.7969,11.7969 -23.5938,23.5938 -35.3907,35.3907 2.74857,4.44422 12.47179,8.89335 10.35681,13.33414 -11.60715,10.23105 -20.82277,23.61993 -34.12276,31.65455 -11.98088,4.13076 -24.9693,0.81063 -37.42131,1.32608 -14.35029,-0.39409 -28.70059,-0.78818 -43.05088,-1.18227 45.53979,-45.53979 91.07959,-91.07959 136.61938,-136.61938 4.86631,4.86631 9.73263,9.73262 14.59894,14.59893 4.99038,-18.59591 9.9593,-37.23952 14.96311,-55.8056 z" />
      <path
         inkscape:connector-curvature="0"
         id="path3053"
         d="m 309.3599,644.19622 c 15.10193,13.96691 3.41088,41.07065 -16.45436,39.96323 -18.03545,0.89581 -30.22006,-22.3447 -19.68575,-36.39422 7.40039,-11.98158 25.87178,-14.27745 36.14011,-3.56901 z"
         style="fill:#ff0000" />
      <path
         inkscape:connector-curvature="0"
         id="rect3055"
         d="m 409.69321,722.76116 c 11.21412,-11.21412 22.42824,-22.42824 33.64236,-33.64236 11.21412,11.21412 22.42824,22.42824 33.64236,33.64236 -11.21412,11.21412 -22.42824,22.42824 -33.64236,33.64236 -11.21412,-11.21412 -22.42824,-22.42824 -33.64236,-33.64236 z"
         style="fill:#ff6600" />
      <path
         inkscape:connector-curvature="0"
         id="path3071"
         d="m 332.60374,612.21204 c -0.24148,-0.8127 0.94164,0.7648 0,0 z"
         style="fill:#008000" />
      <path
         inkscape:connector-curvature="0"
         id="path3131"
         d="m 450.41664,639.61059 c -11.47007,-11.08965 -22.59691,-22.52662 -33.85289,-33.83209 17.07202,-4.64801 34.10219,-9.45461 51.22388,-13.91648 -4.04734,17.03271 -9.27496,33.773 -13.89345,50.66031 l -1.0469,-0.76534 -2.43086,-2.14617 2.2e-4,-2.3e-4 z"
         style="fill:#008000" />
    </g>
  </g>
</svg>
