<?xml version="1.0" encoding="UTF-8" standalone="no"?>
<!DOCTYPE svg PUBLIC "-//W3C//DTD SVG 1.0//EN" "http://www.w3.org/TR/2001/PR-SVG-20010719/DTD/svg10.dtd">
<svg width="11cm" height="11cm" viewBox="219 66 209 220" xmlns="http://www.w3.org/2000/svg" xmlns:xlink="http://www.w3.org/1999/xlink">
  <g>
    <rect style="fill: #ffffff" x="221" y="67" width="204" height="38"/>
    <rect style="fill: none; fill-opacity:0; stroke-width: 2; stroke: #000000" x="221" y="67" width="204" height="38"/>
    <text font-size="12.7998" style="fill: #000000;text-anchor:middle;font-family:sans-serif;font-style:normal;font-weight:normal" x="323" y="89.9">
      <tspan x="323" y="89.9">Kernel</tspan>
    </text>
  </g>
  <g>
    <rect style="fill: #ffffff" x="220" y="138" width="206" height="54"/>
    <rect style="fill: none; fill-opacity:0; stroke-width: 2; stroke: #000000" x="220" y="138" width="206" height="54"/>
    <text font-size="12.7998" style="fill: #000000;text-anchor:middle;font-family:sans-serif;font-style:normal;font-weight:normal" x="323" y="168.9">
      <tspan x="323" y="168.9">USBGuard daemon</tspan>
    </text>
  </g>
  <g>
    <rect style="fill: #ffffff" x="220" y="225" width="99" height="59"/>
    <rect style="fill: none; fill-opacity:0; stroke-width: 2; stroke: #000000" x="220" y="225" width="99" height="59"/>
    <text font-size="12.7998" style="fill: #000000;text-anchor:middle;font-family:sans-serif;font-style:normal;font-weight:normal" x="269.5" y="258.4">
      <tspan x="269.5" y="258.4">CLI</tspan>
    </text>
  </g>
  <g>
    <rect style="fill: #ffffff" x="327.9" y="225.1" width="99" height="59"/>
    <rect style="fill: none; fill-opacity:0; stroke-width: 2; stroke: #000000" x="327.9" y="225.1" width="99" height="59"/>
    <text font-size="12.7998" style="fill: #000000;text-anchor:middle;font-family:sans-serif;font-style:normal;font-weight:normal" x="377.4" y="258.5">
      <tspan x="377.4" y="258.5">GUI</tspan>
    </text>
  </g>
  <g>
    <line style="fill: none; fill-opacity:0; stroke-width: 2; stroke: #000000" x1="323" y1="116.991" x2="323" y2="126.034"/>
    <polygon style="fill: #000000" points="328,116.991 323,106.991 318,116.991 "/>
    <polygon style="fill: none; fill-opacity:0; stroke-width: 2; stroke: #000000" points="328,116.991 323,106.991 318,116.991 "/>
    <polygon style="fill: #000000" points="318,126.034 323,136.034 328,126.034 "/>
    <polygon style="fill: none; fill-opacity:0; stroke-width: 2; stroke: #000000" points="318,126.034 323,136.034 328,126.034 "/>
  </g>
  <g>
    <line style="fill: none; fill-opacity:0; stroke-width: 2; stroke: #000000" x1="300.624" y1="202.432" x2="293.352" y2="214.599"/>
    <polygon style="fill: #000000" points="304.916,204.998 305.755,193.849 296.333,199.867 "/>
    <polygon style="fill: none; fill-opacity:0; stroke-width: 2; stroke: #000000" points="304.916,204.998 305.755,193.849 296.333,199.867 "/>
    <polygon style="fill: #000000" points="289.06,212.033 288.221,223.182 297.643,217.164 "/>
    <polygon style="fill: none; fill-opacity:0; stroke-width: 2; stroke: #000000" points="289.06,212.033 288.221,223.182 297.643,217.164 "/>
  </g>
  <g>
    <line style="fill: none; fill-opacity:0; stroke-width: 2; stroke: #000000" x1="345.712" y1="202.408" x2="353.171" y2="214.693"/>
    <polygon style="fill: #000000" points="349.986,199.813 340.522,193.86 341.438,205.003 "/>
    <polygon style="fill: none; fill-opacity:0; stroke-width: 2; stroke: #000000" points="349.986,199.813 340.522,193.86 341.438,205.003 "/>
    <polygon style="fill: #000000" points="348.897,217.288 358.36,223.241 357.444,212.098 "/>
    <polygon style="fill: none; fill-opacity:0; stroke-width: 2; stroke: #000000" points="348.897,217.288 358.36,223.241 357.444,212.098 "/>
  </g>
  <text font-size="12.7998" style="fill: #000000;text-anchor:start;font-family:sans-serif;font-style:normal;font-weight:normal" x="342" y="124">
    <tspan x="342" y="124">UDev + sysfs</tspan>
  </text>
  <text font-size="12.7998" style="fill: #000000;text-anchor:start;font-family:sans-serif;font-style:normal;font-weight:normal" x="370" y="211">
    <tspan x="370" y="211">IPC</tspan>
  </text>
</svg>
